# xmcd CD database file
#
# Track frame offsets:
#	150
#	6237
#	45687
#	66087
#	87155
#	117975
#	162162
#	185700
#	199100
#
# Disc length: 3047 seconds
#
# Revision: 0
# Processed by: cddbd v1.5.1PL2 Copyright (c) Steve Scherf et al.
# Submitted via: CDex 1.51
#
DISCID=760be509
DTITLE=Silent Dream Orchestra - Ocean Dreams
DYEAR=1998
DGENRE=New Age
TTITLE0=Waves
TTITLE1=Ocean dreams
TTITLE2=Skywalk
TTITLE3=Mairmaid's song
TTITLE4=Next to Aquarius
TTITLE5=Seaborn
TTITLE6=White horse
TTITLE7=Storm at sunup
TTITLE8=Sparkling sea
EXTD=YEAR: 1998
EXTT0=
EXTT1=
EXTT2=
EXTT3=
EXTT4=
EXTT5=
EXTT6=
EXTT7=
EXTT8=
PLAYORDER=
